<svg width="596" height="596" viewBox="0 0 596 596" fill="none" xmlns="http://www.w3.org/2000/svg">
<rect width="596" height="596" rx="40" fill="black"/>
<path d="M128.16 344.12C125.6 344.12 123.52 343.32 121.92 341.72C120.32 340.2 119.52 338 119.52 335.12C119.52 332.88 119.48 329.56 119.4 325.16C119.4 320.68 119.4 315.76 119.4 310.4C119.4 305.04 119.4 299.6 119.4 294.08C119.4 288.48 119.4 283.44 119.4 278.96H101.28C98.24 278.96 95.8 278.28 93.96 276.92C92.12 275.56 91.2 273.64 91.2 271.16C91.2 269.08 91.96 267.2 93.48 265.52C95 263.76 97.6 262.8 101.28 262.64C103.04 262.56 105.28 262.48 108 262.4C110.8 262.32 113.84 262.28 117.12 262.28C120.4 262.28 123.76 262.28 127.2 262.28C130.72 262.28 134.08 262.32 137.28 262.4C140.56 262.4 143.56 262.44 146.28 262.52C149 262.52 151.2 262.52 152.88 262.52C154.96 262.6 156.68 262.88 158.04 263.36C159.4 263.76 160.44 264.36 161.16 265.16C161.96 265.88 162.52 266.76 162.84 267.8C163.16 268.76 163.32 269.76 163.32 270.8C163.32 272.88 162.48 274.76 160.8 276.44C159.12 278.04 156.48 278.84 152.88 278.84H137.16C137.16 281.72 137.16 284.96 137.16 288.56C137.24 292.16 137.28 295.88 137.28 299.72C137.28 303.48 137.28 307.24 137.28 311C137.28 314.76 137.28 318.24 137.28 321.44C137.28 324.64 137.28 327.44 137.28 329.84C137.28 332.24 137.28 333.96 137.28 335C137.2 337.8 136.24 340 134.4 341.6C132.64 343.28 130.56 344.12 128.16 344.12ZM178.418 345.2C177.458 345.28 176.458 345.12 175.418 344.72C174.378 344.4 173.418 343.88 172.538 343.16C171.738 342.44 171.058 341.52 170.498 340.4C170.018 339.28 169.778 337.96 169.778 336.44C169.778 333.88 169.778 331 169.778 327.8C169.778 324.52 169.778 321.16 169.778 317.72C169.778 314.28 169.778 310.88 169.778 307.52C169.858 304.08 169.898 300.96 169.898 298.16C169.898 295.28 169.898 292.84 169.898 290.84C169.898 288.76 169.898 287.36 169.898 286.64C169.978 282 170.818 278.84 172.418 277.16C174.098 275.4 176.138 274.52 178.538 274.52C180.618 274.52 182.378 275.08 183.818 276.2C185.258 277.24 186.258 278.92 186.818 281.24C189.458 279.48 191.898 278.2 194.138 277.4C196.378 276.6 198.818 276.2 201.458 276.2C204.658 276.2 207.498 277 209.978 278.6C212.538 280.2 214.738 282.88 216.578 286.64C217.698 288.88 218.098 290.92 217.778 292.76C217.538 294.6 216.658 295.96 215.138 296.84C213.698 297.72 212.258 298.2 210.818 298.28C209.378 298.28 207.978 297.56 206.618 296.12C206.058 295.64 205.538 295.2 205.058 294.8C204.578 294.32 204.018 293.92 203.378 293.6C202.738 293.28 201.978 293.04 201.098 292.88C200.218 292.72 199.098 292.64 197.738 292.64C194.058 292.64 190.578 294.16 187.298 297.2C187.298 303.92 187.258 310.48 187.178 316.88C187.178 323.28 187.178 329.48 187.178 335.48C187.178 337.08 186.898 338.48 186.338 339.68C185.778 340.8 185.058 341.76 184.178 342.56C183.378 343.36 182.458 343.96 181.418 344.36C180.378 344.84 179.378 345.12 178.418 345.2ZM238.709 345.2C237.749 345.28 236.749 345.12 235.709 344.72C234.749 344.4 233.829 343.88 232.949 343.16C232.149 342.44 231.469 341.52 230.909 340.4C230.429 339.28 230.189 337.96 230.189 336.44C230.189 332.6 230.189 328.52 230.189 324.2C230.189 319.8 230.189 315.64 230.189 311.72C230.269 307.8 230.309 304.36 230.309 301.4C230.309 298.36 230.309 296.28 230.309 295.16C230.389 290.44 231.229 287.24 232.829 285.56C234.509 283.88 236.549 283.04 238.949 283.04C241.669 283.04 243.789 283.96 245.309 285.8C246.829 287.56 247.589 290.52 247.589 294.68C247.589 298.92 247.589 302.72 247.589 306.08C247.589 309.44 247.549 312.68 247.469 315.8C247.469 318.92 247.469 322.04 247.469 325.16C247.469 328.28 247.469 331.72 247.469 335.48C247.469 337.08 247.189 338.48 246.629 339.68C246.149 340.8 245.469 341.76 244.589 342.56C243.789 343.36 242.869 343.96 241.829 344.36C240.789 344.84 239.749 345.12 238.709 345.2ZM228.269 264.56C228.269 261.28 229.189 258.76 231.029 257C232.949 255.16 235.709 254.24 239.309 254.24C242.669 254.24 245.309 255.16 247.229 257C249.229 258.84 250.229 261.4 250.229 264.68C250.229 267.4 249.349 269.72 247.589 271.64C245.909 273.56 243.149 274.52 239.309 274.52C235.469 274.52 232.669 273.68 230.909 272C229.149 270.32 228.269 267.84 228.269 264.56ZM350.272 345.2C349.312 345.28 348.312 345.12 347.272 344.72C346.312 344.4 345.392 343.88 344.512 343.16C343.712 342.44 343.032 341.52 342.472 340.4C341.992 339.28 341.752 337.96 341.752 336.44C341.752 332.6 341.752 328.52 341.752 324.2C341.752 319.8 341.752 315.64 341.752 311.72C341.832 307.8 341.872 304.36 341.872 301.4C341.872 298.36 341.872 296.28 341.872 295.16C341.952 290.44 342.792 287.24 344.392 285.56C346.072 283.88 348.112 283.04 350.512 283.04C353.232 283.04 355.352 283.96 356.872 285.8C358.392 287.56 359.152 290.52 359.152 294.68C359.152 298.92 359.152 302.72 359.152 306.08C359.152 309.44 359.112 312.68 359.032 315.8C359.032 318.92 359.032 322.04 359.032 325.16C359.032 328.28 359.032 331.72 359.032 335.48C359.032 337.08 358.752 338.48 358.192 339.68C357.712 340.8 357.032 341.76 356.152 342.56C355.352 343.36 354.432 343.96 353.392 344.36C352.352 344.84 351.312 345.12 350.272 345.2ZM339.832 264.56C339.832 261.28 340.752 258.76 342.592 257C344.512 255.16 347.272 254.24 350.872 254.24C354.232 254.24 356.872 255.16 358.792 257C360.792 258.84 361.792 261.4 361.792 264.68C361.792 267.4 360.912 269.72 359.152 271.64C357.472 273.56 354.712 274.52 350.872 274.52C347.032 274.52 344.232 273.68 342.472 272C340.712 270.32 339.832 267.84 339.832 264.56ZM409.307 343.52C405.787 343.52 402.067 342.84 398.147 341.48C394.227 340.12 390.627 338.04 387.347 335.24C384.067 332.44 381.347 328.92 379.187 324.68C377.027 320.44 375.947 315.48 375.947 309.8C375.947 304.6 376.907 299.88 378.827 295.64C380.747 291.32 383.307 287.64 386.507 284.6C389.787 281.56 393.547 279.2 397.787 277.52C402.107 275.84 406.627 275 411.347 275C413.667 275 415.787 275.16 417.707 275.48C419.707 275.8 421.547 276.36 423.227 277.16C424.987 277.96 426.627 279 428.147 280.28C429.747 281.48 431.347 283 432.947 284.84C433.587 285.56 434.027 286.44 434.267 287.48C434.507 288.44 434.547 289.44 434.387 290.48C434.307 291.52 433.987 292.52 433.427 293.48C432.947 294.36 432.227 295.04 431.267 295.52C429.427 296.64 427.507 297.28 425.507 297.44C423.587 297.6 421.827 296.76 420.227 294.92C419.267 293.72 417.987 292.72 416.387 291.92C414.867 291.04 412.787 290.6 410.147 290.6C407.987 290.6 405.907 290.96 403.907 291.68C401.907 292.4 400.107 293.52 398.507 295.04C396.987 296.56 395.747 298.52 394.787 300.92C393.827 303.24 393.347 306.08 393.347 309.44C393.347 312 393.747 314.36 394.547 316.52C395.347 318.68 396.547 320.56 398.147 322.16C399.827 323.68 401.907 324.88 404.387 325.76C406.947 326.64 409.987 327.08 413.507 327.08C416.307 327.08 418.507 326.56 420.107 325.52C421.707 324.48 423.067 323.56 424.187 322.76C425.387 322.04 426.587 321.96 427.787 322.52C429.067 323 430.187 323.96 431.147 325.4C432.187 326.92 432.747 328.76 432.827 330.92C432.987 333.08 431.947 335.08 429.707 336.92C428.587 337.88 427.427 338.76 426.227 339.56C425.107 340.36 423.787 341.04 422.267 341.6C420.747 342.24 418.947 342.72 416.867 343.04C414.787 343.36 412.267 343.52 409.307 343.52ZM455.815 343.88C453.255 344.04 451.135 343.4 449.455 341.96C447.775 340.52 446.935 338.28 446.935 335.24C446.935 332.68 446.935 329.32 446.935 325.16C446.935 321 446.935 316.52 446.935 311.72C446.935 306.84 446.935 301.88 446.935 296.84C446.935 291.72 446.935 287 446.935 282.68C446.935 278.28 446.935 274.52 446.935 271.4C447.015 268.2 447.055 266.08 447.055 265.04C447.135 261.44 447.775 258.84 448.975 257.24C450.255 255.56 452.455 254.72 455.575 254.72C458.135 254.72 460.135 255.6 461.575 257.36C463.015 259.04 463.735 261.56 463.735 264.92V296.48C465.495 294.96 467.415 293.36 469.495 291.68C471.655 290 473.815 288.36 475.975 286.76C478.135 285.08 480.295 283.48 482.455 281.96C484.695 280.44 486.815 279.04 488.815 277.76C491.775 275.92 494.335 275.28 496.495 275.84C498.655 276.4 500.295 277.56 501.415 279.32C503.575 282.68 502.335 286.12 497.695 289.64C496.415 290.6 494.935 291.76 493.255 293.12C491.575 294.48 489.815 295.88 487.975 297.32C486.215 298.76 484.495 300.2 482.815 301.64C481.135 303 479.695 304.16 478.495 305.12C477.855 305.68 477.495 306.16 477.415 306.56C477.415 306.96 477.855 307.52 478.735 308.24C482.655 311.6 486.655 315.2 490.735 319.04C494.895 322.8 498.575 326.6 501.775 330.44C502.735 331.72 503.375 332.96 503.695 334.16C504.015 335.36 504.095 336.48 503.935 337.52C503.855 338.56 503.535 339.52 502.975 340.4C502.495 341.2 501.895 341.88 501.175 342.44C499.815 343.56 498.015 344.08 495.775 344C493.615 344 491.455 342.88 489.295 340.64C488.335 339.68 486.895 338.28 484.975 336.44C483.055 334.52 480.895 332.44 478.495 330.2C476.175 327.96 473.695 325.68 471.055 323.36C468.495 321.04 466.015 318.92 463.615 317V334.64C463.615 336.8 462.895 338.84 461.455 340.76C460.095 342.68 458.215 343.72 455.815 343.88Z" fill="white"/>
<path d="M276.024 342.92C273.944 342.92 272.264 342.4 270.984 341.36C269.704 340.4 268.904 338.4 268.584 335.36C268.504 334.16 268.424 331.76 268.344 328.16C268.264 324.56 268.224 320.36 268.224 315.56C268.224 310.68 268.224 305.56 268.224 300.2C268.224 294.76 268.224 289.68 268.224 284.96C268.224 280.24 268.224 276.2 268.224 272.84C268.224 269.4 268.224 267.24 268.224 266.36C268.224 264.52 268.704 263.24 269.664 262.52C270.624 261.72 272.104 261.24 274.104 261.08C277.704 260.84 280.904 260.72 283.704 260.72C286.584 260.64 289.264 260.68 291.744 260.84C294.304 260.92 296.784 261.12 299.184 261.44C301.664 261.76 304.344 262.24 307.224 262.88C313.384 264.24 318.144 267.16 321.504 271.64C324.944 276.04 326.664 281.24 326.664 287.24C326.664 293.48 325.424 298.8 322.944 303.2C320.544 307.6 316.864 310.96 311.904 313.28C308.064 315.12 303.984 316.28 299.664 316.76C295.424 317.24 291.184 317.16 286.944 316.52C285.824 316.36 285.144 316.52 284.904 317C284.744 317.48 284.664 318.32 284.664 319.52C284.664 320.16 284.624 321.12 284.544 322.4C284.544 323.6 284.504 324.96 284.424 326.48C284.344 327.92 284.264 329.36 284.184 330.8C284.184 332.24 284.184 333.48 284.184 334.52C284.184 336.84 283.584 338.84 282.384 340.52C281.184 342.12 279.064 342.92 276.024 342.92ZM284.184 298.16C284.184 299.28 284.344 300 284.664 300.32C285.064 300.64 285.824 300.84 286.944 300.92C289.984 301.16 292.984 301.2 295.944 301.04C298.984 300.8 301.704 300.24 304.104 299.36C306.664 298.4 308.504 296.88 309.624 294.8C310.744 292.64 311.304 290.16 311.304 287.36C311.304 285.28 310.664 283.28 309.384 281.36C308.184 279.44 306.224 278.04 303.504 277.16C300.624 276.28 297.624 275.8 294.504 275.72C291.464 275.56 288.744 275.64 286.344 275.96C285.464 276.12 284.864 276.32 284.544 276.56C284.224 276.8 284.064 277.28 284.064 278L284.184 298.16Z" fill="#FE8137"/>
</svg>
